<svg width="69" height="69" viewBox="0 0 69 69" fill="none" xmlns="http://www.w3.org/2000/svg">
<g clip-path="url(#clip0_155:3)">
<path d="M24.416 8.288C24.416 7.81867 24.5867 7.41333 24.928 7.072C25.312 6.73066 25.7387 6.56 26.208 6.56C26.6773 6.56 27.0827 6.73066 27.424 7.072C27.7653 7.41333 27.936 7.81867 27.936 8.288C27.936 8.75733 27.7653 9.184 27.424 9.568C27.0827 9.90933 26.6773 10.08 26.208 10.08C25.7387 10.08 25.312 9.90933 24.928 9.568C24.5867 9.184 24.416 8.75733 24.416 8.288ZM27.552 56.928C27.4667 59.232 26.7627 61.1733 25.44 62.752C24.16 64.3733 22.3467 65.248 20 65.376L19.616 63.136C19.616 63.264 20.0853 63.1147 21.024 62.688C21.9627 62.304 22.7947 61.5787 23.52 60.512C24.288 59.488 24.672 58.016 24.672 56.096V22.752L21.216 22.624L20 19.936H27.552V56.928ZM38.1335 19.936H46.5175L45.2375 22.688H38.1335V43.552C38.1335 45.3867 38.4962 46.88 39.2215 48.032C39.9895 49.1413 41.2055 49.9733 42.8695 50.528L42.0375 52.832C39.6482 52.1493 37.9202 51.0613 36.8535 49.568C35.7868 48.0747 35.2535 46.0693 35.2535 43.552V7.2H38.1335V19.936ZM50.816 48.48C51.2853 48.48 51.6907 48.6507 52.032 48.992C52.416 49.3333 52.608 49.7387 52.608 50.208C52.608 50.6773 52.416 51.104 52.032 51.488C51.6907 51.8293 51.2853 52 50.816 52C50.3467 52 49.9413 51.8293 49.6 51.488C49.2587 51.104 49.088 50.6773 49.088 50.208C49.088 49.7387 49.2587 49.3333 49.6 48.992C49.9413 48.6507 50.3467 48.48 50.816 48.48Z" fill="#161616"/>
</g>
<defs>
<clipPath id="clip0_155:3">
<rect width="69" height="69" fill="white"/>
</clipPath>
</defs>
</svg>
