<svg width="69" height="69" viewBox="0 0 69 69" fill="none" xmlns="http://www.w3.org/2000/svg">
<g clip-path="url(#clip0)">
<path d="M26.848 11.808C26.1227 11.808 25.4827 11.552 24.928 11.04C24.416 10.528 24.16 9.90933 24.16 9.184C24.16 8.45866 24.416 7.84 24.928 7.328C25.4827 6.816 26.1227 6.56 26.848 6.56C27.5733 6.56 28.1707 6.816 28.64 7.328C29.152 7.84 29.408 8.45866 29.408 9.184C29.408 9.90933 29.152 10.528 28.64 11.04C28.128 11.552 27.5307 11.808 26.848 11.808ZM21.408 24.032L20 19.936H29.024V56.8C28.9387 59.232 28.0853 61.2587 26.464 62.88C24.8853 64.544 22.9227 65.376 20.576 65.376L19.68 61.792C19.68 61.92 20.1067 61.792 20.96 61.408C21.856 61.024 22.6453 60.3413 23.328 59.36C24.0533 58.4213 24.416 57.0347 24.416 55.2V24.352L21.408 24.032ZM43.6835 52.832C40.9528 52.32 38.9902 51.296 37.7955 49.76C36.6008 48.224 36.0035 46.1547 36.0035 43.552V7.2H40.6755V19.936H47.8435L46.3075 24.288H40.6755V43.552C40.6755 46.5813 42.1262 48.48 45.0275 49.248L43.6835 52.832ZM52.2565 52C51.5738 52 50.9978 51.7653 50.5285 51.296C50.0592 50.8267 49.8245 50.2507 49.8245 49.568C49.8245 48.8853 50.0592 48.3093 50.5285 47.84C50.9978 47.3707 51.5738 47.136 52.2565 47.136C52.9392 47.136 53.5152 47.3707 53.9845 47.84C54.4538 48.3093 54.6885 48.8853 54.6885 49.568C54.6885 50.2507 54.4538 50.8267 53.9845 51.296C53.5152 51.7653 52.9392 52 52.2565 52Z" fill="#161616"/>
</g>
<defs>
<clipPath id="clip0">
<rect width="69" height="69" fill="white"/>
</clipPath>
</defs>
</svg>
